<svg xmlns="http://www.w3.org/2000/svg" viewBox="0 0 200 200"><defs><style>.a{fill:#f81894;}.b{fill:#fff;}</style></defs><title>Asset 3</title><rect class="a" width="200" height="200"/><path class="b" d="M140.14,76.84h-9.51l-.69-4.92-.52-3.77-3.78.52-6.11.86-3.77.52.52,3.78.43,3H88.11A21.72,21.72,0,0,0,66.37,98.59V126h52a20.6,20.6,0,0,0,2.87-.22,9.46,9.46,0,0,0,18.28-3.42,9.34,9.34,0,0,0-2.78-6.62,21.44,21.44,0,0,0,3.39-11.49Zm-14-4.39,5.69,40.65a8.35,8.35,0,0,0-1.78-.19,9.42,9.42,0,0,0-4.3,1L120.06,73.3Zm-10.7,48.27H105.38L100,98.23l-5.42,22.49H84.49l-8-33.63h8.83l4.34,24.37,5.91-24.37h8.9l5.87,24.37,4.4-24.37h3.45l.2,1.43,1.77,12.63Zm20.16,2.69a5.61,5.61,0,0,1-5.55,4.63,5.52,5.52,0,0,1-5-3.12,5,5,0,0,1-.66-2.52,5.58,5.58,0,0,1,1.94-4.24,5.49,5.49,0,0,1,3.74-1.44,5.26,5.26,0,0,1,2.37.55,5.56,5.56,0,0,1,3.31,5.13A3.33,3.33,0,0,1,135.62,123.41Z"/></svg>